Coordinates
version=1
nRows=17
nColumns=36
inDegrees=yes

Units are S.I. units (second, meters, Newtons, ...)
If the header above contains a line with 'inDegrees', this indicates whether rotational values are in degrees (yes) or radians (no).

endheader
time	pelvis_tilt	pelvis_list	pelvis_rotation	pelvis_tx	pelvis_ty	pelvis_tz	hip_flexion_r	hip_adduction_r	hip_rotation_r	knee_angle_r	knee_angle_r_beta	ankle_angle_r	subtalar_angle_r	mtp_angle_r	hip_flexion_l	hip_adduction_l	hip_rotation_l	knee_angle_l	knee_angle_l_beta	ankle_angle_l	subtalar_angle_l	mtp_angle_l	lumbar_extension	lumbar_bending	lumbar_rotation	arm_flex_r	arm_add_r	arm_rot_r	elbow_flex_r	pro_sup_r	arm_flex_l	arm_add_l	arm_rot_l	elbow_flex_l	pro_sup_l
      1.05000000	      7.44322437	    -42.67208328	     11.16229015	      0.70026603	      1.08933292	      0.31371938	     44.52026882	     29.84201330	    -39.66018417	      0.04020326	      0.00070168	    -49.84825492	     34.04361427	     -7.49999987	     70.81784509	     -9.90928062	    -39.96735671	      0.07318918	      0.00127739	     49.91211212	    -34.94300794	     -7.49999987	    -31.88093787	     53.64841096	     37.07669083	    -31.29771868	    -12.74969687	    -29.42787992	     93.11033912	     83.57062110	     23.91636915	     13.70384055	     21.23470914	     60.80910904	     92.04276564
      1.06666670	      6.10581519	    -42.54139718	     11.41357128	      0.70667538	      1.10209610	      0.30976987	     44.71233195	     29.11902594	    -39.64218948	      0.03589048	      0.00062641	    -49.87590133	     33.87306386	     -7.49999987	     70.83416966	     -9.27200066	    -39.96716889	      0.09955031	      0.00173748	     49.90082256	    -34.94219268	     -7.49999987	    -27.99384496	     54.79326244	     33.33746076	    -33.20116715	    -13.34034793	    -29.02410553	     94.53419003	     80.39578159	     23.29612806	     13.52598732	     21.00483040	     60.89040324	     87.70587321
      1.08333330	      4.45698722	    -41.00067624	     11.83609181	      0.71517812	      1.11988455	      0.30606603	     44.46354645	     27.46602636	    -39.73090126	      0.03461289	      0.00060411	    -49.88275540	     29.79639621	     -7.49999987	     70.57336648	     -7.90958187	    -39.96726111	      0.10742318	      0.00187489	     49.89485982	    -34.94230836	     -7.49999987	    -23.47528378	     54.57172345	     27.68646876	    -33.57599596	    -13.89562811	    -28.77481303	     95.20749169	     84.33787388	     23.11427073	     13.11301704	     18.57962938	     60.12845019	     96.40028155
      1.10000000	     -1.82582098	    -36.08531428	      6.03463102	      0.71896447	      1.12951528	      0.30832758	     47.61193666	     25.16507178	    -39.89736698	      0.03199340	      0.00055839	    -49.88996682	     -3.77669593	     -7.49999987	     72.76724579	     -8.19655684	    -39.97014404	      0.05800568	      0.00101239	     49.92076588	    -34.95052610	     -7.49999987	    -17.50565592	     49.25587964	     23.37349864	    -32.90644017	    -15.34582825	    -26.24926202	     95.29293753	     84.47620160	     21.74077389	     11.45626718	     16.38418352	     61.32979873	     97.02170967
      1.11666670	     -8.80288403	    -28.83703565	     -0.80958509	      0.72966956	      1.13431398	      0.31736590	     53.11182667	     22.07566496	    -39.94309409	      0.02721922	      0.00047507	    -49.81774098	    -34.16683892	     -7.49999987	     76.03788298	     -8.69190775	    -39.97219542	      0.03591374	      0.00062681	     49.93528096	    -34.95547816	     -7.49999987	    -11.06721621	     41.30359317	     21.62238666	    -32.35143239	    -15.58104874	    -23.71895693	     94.05327420	     84.18388497	     20.50754748	      9.35050747	     15.75190864	     61.56390367	     95.89185514
      1.13333330	    -10.75423439	    -25.71400399	     -2.09659961	      0.74110562	      1.14118826	      0.31805055	     56.27635658	     19.87005502	    -39.94973724	      0.02484436	      0.00043362	    -49.84809153	    -34.17403617	     -7.49999987	     77.13688462	     -8.04541644	    -39.97300117	      0.03133364	      0.00054688	     49.94048088	    -34.95747101	     -7.49999987	     -8.08170461	     38.12999753	     20.33747086	    -33.84407661	    -15.99011450	    -22.89312496	     95.63556737	     83.75407754	     19.99971041	      8.62593916	     15.82755831	     62.63353645	     95.05270794
      1.15000000	    -12.06119465	    -22.98090128	     -3.10421112	      0.75254626	      1.14551677	      0.31748294	     59.36979066	     17.79101760	    -39.95320535	      0.02283493	      0.00039854	    -49.84466727	    -34.45246333	     -7.49999987	     78.12437837	     -7.60625114	    -39.97303122	      0.02917402	      0.00050918	     49.94154686	    -34.95757053	     -7.49999987	     -5.31181663	     35.04529383	     19.34841919	    -34.75493046	    -16.43499549	    -21.96442102	     95.61199652	     83.51228602	     19.45954552	      7.88087631	     15.99761349	     62.85087628	     94.64019559
      1.16666670	    -10.09991793	    -20.44726371	     -0.50460606	      0.75293830	      1.16193267	      0.31309728	     59.56007699	     14.09238777	    -39.95423172	      0.02173988	      0.00037943	    -49.87342153	    -33.97375336	     -7.49999987	     76.02647563	     -4.50338805	    -39.97270658	      0.02817331	      0.00049172	     49.93618675	    -34.95608922	     -7.49999987	     -5.51889828	     31.58738581	     15.58294343	    -33.34211047	    -17.60354239	    -19.85686707	     94.67729707	     86.20396772	     19.51458138	      6.96225005	     14.70771733	     64.08579835	     99.90169130
      1.18333330	     -9.23853608	    -19.01607495	      1.84775834	      0.76372742	      1.15850126	      0.30548321	     60.50070468	     11.06948346	    -39.95397237	      0.02079096	      0.00036287	    -49.88737847	    -33.01235614	     -7.49999987	     75.15970061	     -1.89316684	    -39.97223725	      0.02830218	      0.00049397	     49.93336323	    -34.95492548	     -7.49999987	     -4.90412723	     29.75839261	     13.41724369	    -33.61416542	    -18.12117365	    -19.46310207	     94.76229927	     85.77984690	     20.55079982	      6.58467377	     16.47860204	     64.32509371	     99.46043278
      1.20000000	     55.46268783	    -28.89869420	    100.68257218	      0.75068119	      1.14452828	      0.27570028	     42.96352098	     26.16305443	     39.97935814	     42.99158091	      0.75034464	     20.70722575	     34.32347031	     -7.49999987	     51.85536005	      4.00013821	    -39.84880802	     35.56864669	      0.62079000	     22.82731852	    -33.39997846	     -7.49999987	     54.06857203	     63.11868615	    -89.20403834	    -36.97365959	     -5.61901846	    -27.10017190	     96.93976688	     85.47485993	     37.28648938	      7.12388812	     36.46927831	     55.83863068	     95.00158116
      1.21666670	     54.76067360	    -29.20707435	    101.00740782	      0.75455045	      1.14742173	      0.27076552	     43.49642438	     23.64939143	     39.97955585	     42.12901004	      0.73528994	     22.87029104	     34.50709392	     -7.49999987	     52.77677774	      4.48528886	    -39.84510649	     35.37366914	      0.61738699	     23.97065614	    -34.15509174	     -7.49999987	     53.69448020	     61.86094849	    -89.25844997	    -37.11974591	     -7.37017664	    -26.31607308	     96.29185113	     82.92305412	     37.16537230	      6.84777248	     37.32246247	     56.18464326	     90.95206713
      1.23333330	     53.98780429	    -30.51000792	     99.89352603	      0.76372848	      1.14362608	      0.26761776	     44.44664154	     22.78890700	     39.97941047	     42.13328280	      0.73536451	     23.76542403	     34.59369009	     -7.49999987	     55.63442953	      3.64928152	    -39.85918076	     34.71167321	      0.60583299	     23.15656513	    -34.43031728	     -7.49999987	     53.19655804	     61.77688677	    -89.08181916	    -36.28137126	     -9.98370950	    -24.89681540	     95.23893850	     87.46828791	     36.20139435	      5.91630932	     35.24983338	     57.13375655	     95.93931602
      1.25000000	     52.10396199	    -32.77228893	     99.19228790	      0.76773831	      1.13808904	      0.26084792	     46.15316872	     21.16386829	     39.97911206	     42.85027199	      0.74787833	     26.02145756	     34.66003060	     -7.49999987	     58.62020299	      3.54193499	    -39.86263095	     35.78141798	      0.62450355	     24.05176838	    -34.57891517	     -7.49999987	     53.38787504	     60.34822690	    -88.93953444	    -34.88421183	    -13.64246998	    -22.54021396	     92.67104080	     85.13968523	     35.17736849	      5.18789769	     34.23577188	     56.55445468	     92.49050476
      1.26666670	     48.80536375	    -36.39693419	     94.55325133	      0.76774112	      1.14368432	      0.25949953	     48.84168388	     19.91781920	     39.97873152	     41.67303737	      0.72733171	     24.75588870	     34.74881883	     -7.49999987	     62.68542956	      1.74310868	    -39.87481235	     35.69336536	      0.62296675	     20.77946913	    -34.64301782	     -7.49999987	     51.27628594	     61.12859825	    -86.62111015	    -31.03280938	    -18.89715361	    -18.35347908	     90.17260276	     87.98735656	     32.97400026	      3.62039003	     28.42396028	     58.71020349	     99.90127046
      1.28333330	     43.73749190	    -41.20803665	     88.17098390	      0.78079944	      1.14802742	      0.26329926	     53.85414435	     20.64969726	     39.97839018	     40.31054728	      0.70355177	     19.43800870	     34.82992484	     -7.49999987	     69.15393433	     -2.12533218	    -39.89381307	     36.99600966	      0.64570218	     21.42529229	    -34.76604449	     -7.49999987	     47.85614087	     61.18109639	    -80.68738343	    -27.03374998	    -23.41883150	    -13.45447224	     85.97287077	     86.98748985	     30.88589927	      2.60815511	     24.92201222	     59.59027182	     99.69865841
      1.30000000	     32.89412645	    -45.47680942	     75.38705073	      0.78849260	      1.15582819	      0.26871691	     58.27817960	     21.55108999	     39.97635405	     36.79389358	      0.64217459	      7.07930333	     34.87430649	     -7.49999987	     75.21866754	     -8.18148798	    -39.91644566	     38.96778537	      0.68011616	     18.63689074	    -34.82804581	     -7.49999987	     38.52709186	     59.46964097	    -67.32890444	    -21.34412836	    -26.85854913	     -7.10662883	     78.86518369	     87.31828930	     28.26014052	      1.66537564	     21.05957805	     59.42086597	    102.60029719
      1.31666670	     19.30060291	    -47.23264962	     57.78994594	      0.79836204	      1.16001404	      0.27689744	     61.36700770	     25.29694395	     39.97175818	     33.45351906	      0.58387405	    -10.51559526	     34.89287652	     -7.49999987	     79.72632961	    -17.32286037	    -39.92638369	     40.41508549	      0.70537631	     13.48346564	    -34.85819763	     -7.49999987	     27.36216927	     56.44259804	    -51.78034106	    -14.63742463	    -29.01319790	      0.76948839	     70.63717988	     87.19133768	     25.33587898	     -0.02417536	     17.57951895	     58.55064614	    104.39073647
